Coordinates
version=1
nRows=54
nColumns=12
inDegrees=yes

Units are S.I. units (second, meters, Newtons, ...)
Angles are in degrees

endheader
time	SC_y	SC_z	SC_x	AC_y	AC_z	AC_x	GH_y	GH_z	GH_yy	EL_x	PS_y
       0.0              -47.84           24.9          80.17           57.6         0.6648         -17.52          8.143          77.09         -60.58          115.0          142.7
   0.01334              -47.84           24.9          80.16           57.6         0.6637         -17.51          8.118          77.08         -60.54          115.0          142.6
   0.02668              -47.84           24.9          80.15           57.6         0.6626         -17.51          8.092          77.07         -60.51          115.0          142.6
   0.04002              -47.84           24.9          80.14          57.59         0.6614          -17.5          8.063          77.06         -60.47          115.0          142.6
   0.05336              -47.84           24.9          80.13          57.59         0.6602          -17.5          8.033          77.05         -60.43          115.0          142.6
   0.06671              -47.84           24.9          80.12          57.58         0.6588         -17.49          8.001          77.04         -60.39          114.9          142.5
   0.08005              -47.84          24.89          80.11          57.58         0.6574         -17.48          7.967          77.03         -60.34          114.9          142.5
   0.09339              -47.83          24.89          80.09          57.58         0.6558         -17.48           7.93          77.02          -60.3          114.9          142.5
    0.1067              -47.83          24.89          80.08          57.57         0.6542         -17.47          7.891          77.01         -60.24          114.9          142.5
    0.1201              -47.83          24.89          80.07          57.56         0.6524         -17.46          7.848          76.99         -60.19          114.9          142.4
    0.1334              -47.83          24.88          80.05          57.56         0.6505         -17.45          7.803          76.98         -60.13          114.9          142.4
    0.1468              -47.83          24.88          80.03          57.55         0.6484         -17.44          7.754          76.97         -60.06          114.9          142.4
    0.1601              -47.83          24.88          80.02          57.55         0.6462         -17.43          7.702          76.95          -60.0          114.9          142.3
    0.1734              -47.83          24.87           80.0          57.54         0.6438         -17.42          7.645          76.93         -59.92          114.9          142.3
    0.1868              -47.83          24.87          79.98          57.53         0.6413         -17.41          7.584          76.91         -59.84          114.9          142.2
    0.2001              -47.83          24.86          79.95          57.52         0.6385         -17.39          7.517          76.89         -59.75          114.8          142.2
    0.2135              -47.83          24.86          79.93          57.51         0.6354         -17.38          7.445          76.87         -59.66          114.8          142.1
    0.2268              -47.83          24.85           79.9           57.5         0.6321         -17.36          7.366          76.84         -59.55          114.8          142.0
    0.2401              -47.83          24.85          79.87          57.49         0.6285         -17.35           7.28          76.82         -59.44          114.8          142.0
    0.2535              -47.83          24.84          79.84          57.48         0.6245         -17.33          7.185          76.79         -59.32          114.8          141.9
    0.2668              -47.83          24.83          79.81          57.46         0.6202         -17.31          7.082          76.76         -59.18          114.7          141.8
    0.2802              -47.83          24.83          79.77          57.45         0.6154         -17.28          6.968          76.72         -59.03          114.7          141.7
    0.2935              -47.82          24.82          79.72          57.43         0.6101         -17.26          6.842          76.68         -58.87          114.7          141.6
    0.3068              -47.82          24.81          79.68          57.41         0.6042         -17.23          6.703          76.64         -58.68          114.6          141.5
    0.3202              -47.82           24.8          79.62          57.39         0.5977          -17.2          6.548          76.59         -58.48          114.6          141.4
    0.3335              -47.82          24.79          79.57          57.37         0.5904         -17.16          6.375          76.54         -58.25          114.6          141.3
    0.3469              -47.82          24.77           79.5          57.35         0.5823         -17.13          6.181          76.48          -58.0          114.5          141.1
    0.3602              -47.82          24.76          79.43          57.32         0.5731         -17.08          5.963          76.41         -57.71          114.5          140.9
    0.3736              -47.81          24.74          79.34          57.29         0.5627         -17.03          5.717          76.33         -57.39          114.4          140.8
    0.3869              -47.81          24.72          79.25          57.25          0.551         -16.98          5.437          76.24         -57.02          114.4          140.5
    0.4002              -47.81           24.7          79.14          57.21         0.5376         -16.91          5.118          76.14          -56.6          114.3          140.3
    0.4136              -47.81          24.68          79.01          57.16         0.5221         -16.84          4.752          76.03         -56.12          114.2          140.0
    0.4269               -47.8          24.65          78.87           57.1         0.5044         -16.75          4.329           75.9         -55.56          114.1          139.7
    0.4403               -47.8          24.62           78.7          57.04         0.4837         -16.65          3.838          75.75         -54.92          114.0          139.3
    0.4536              -47.79          24.58          78.51          56.96         0.4595         -16.54          3.263          75.57         -54.16          113.9          138.8
    0.4669              -47.79          24.53          78.28          56.87          0.431          -16.4          2.585          75.36         -53.27          113.7          138.3
    0.4803              -47.78          24.48          78.01          56.77         0.3971         -16.24          1.779           75.1         -52.21          113.5          137.6
    0.4936              -47.77          24.42          77.68          56.64         0.3565         -16.05          0.814           74.8         -50.94          113.3          136.9
     0.507              -47.76          24.34          77.28          56.49         0.3074         -15.81        -0.3539          74.44          -49.4          113.0          136.0
    0.5203              -47.75          24.24           76.8           56.3         0.2474         -15.53         -1.781           74.0         -47.53          112.7          134.8
    0.5336              -47.73          24.12           76.2          56.07         0.1733         -15.17         -3.542          73.45         -45.21          112.3          133.5
     0.547              -47.71          23.98          75.45          55.78        0.08093         -14.73         -5.738          72.76         -42.33          111.8          131.7
    0.5603              -47.69          23.79          74.51          55.42       -0.03542         -14.18         -8.504           71.9         -38.69          111.1          129.5
    0.5737              -47.65          23.56          73.32          54.96        -0.1833         -13.47         -12.02          70.81         -34.07          110.3          126.8
     0.587              -47.61          23.26          71.79          54.37        -0.3727         -12.56         -16.52          69.41         -28.15          109.3          123.2
    0.6003              -47.56          22.87          69.83          53.61        -0.6156          -11.4          -22.3          67.61         -20.56          108.0          118.7
    0.6137              -47.49          22.38          67.32          52.64         -0.926         -9.922         -29.68          65.31         -10.86          106.3          112.9
     0.627              -47.41          21.76          64.17          51.42         -1.316         -8.059         -38.95          62.42          1.342          104.1          105.6
    0.6404              -47.31           21.0          60.33          49.94         -1.792         -5.788         -50.26           58.9           16.2          101.5          96.66
    0.6537              -47.19          20.13          55.88          48.22         -2.343         -3.155         -63.36          54.82          33.43          98.52          86.34
    0.6671              -47.06          19.18          51.06          46.36          -2.94        -0.3047         -77.55           50.4          52.09          95.25          75.16
    0.6804              -46.93          18.23          46.24          44.49         -3.537          2.546         -91.74          45.98          70.74          91.98          63.98
    0.6937              -46.81          17.36          41.79          42.77         -4.088          5.178         -104.8           41.9          87.97          88.96          53.66
    0.7071              -46.71           16.6          37.95          41.29         -4.563          7.449         -116.2          38.38          102.8          86.36          44.75
